<svg width="512" height="512" viewBox="0 0 512 512" fill="none" xmlns="http://www.w3.org/2000/svg">
<g filter="url(#filter0_g_10_27)">
<path d="M328.205 28.638C341.327 22.1406 350.881 21.3429 364.421 22.0202C375.819 22.5905 382.771 24.357 393.091 28.8495C406.237 34.5717 413.808 40.0537 423.174 51.0327C429.963 58.99 431.948 67.3174 433.537 73.6882C435.157 80.1849 436.378 84.7084 440.143 89.1763C443.426 93.0718 448.629 96.8814 454.826 100.354C460.921 103.769 467.439 106.563 472.861 108.623C478.867 110.905 481.161 116.597 481.087 121.041C481.014 125.498 478.5 131.192 472.273 133.185C471.115 133.556 469.94 133.939 468.779 134.329C463.084 136.24 457.036 137.369 452.399 138.434C447.439 139.573 443.381 140.761 439.754 142.76C433.83 146.024 431.488 147.697 428.659 152.043C428.003 153.053 427.481 153.991 427.063 154.919C427.042 156.57 426.563 158.143 425.728 159.491C425.297 162.169 425.22 165.417 424.983 170.26C424.745 175.102 425.472 178.922 426.713 182.993C427.341 183.917 427.806 184.974 428.055 186.134C428.158 186.614 428.218 187.094 428.242 187.569C429.78 191.936 431.765 197.392 433.029 203.795C436.824 223.024 441.875 236.483 441.163 258.723C440.548 277.921 438.792 289.764 431.529 308.085C423.27 328.917 414.945 339.877 399.929 355.558C388.082 367.93 379.939 373.936 365.73 382.774C358.621 387.196 353.557 389.939 347.288 392.874L354.533 419.429L385.889 431.085C390.502 432.8 392.853 437.93 391.138 442.543C389.423 447.156 384.293 449.506 379.68 447.791L360.308 440.59L363.513 452.336C364.809 457.084 362.01 461.983 357.262 463.278C352.514 464.574 347.614 461.775 346.319 457.027L342.527 443.132L329.607 454.902C325.968 458.216 320.332 457.953 317.018 454.314C313.704 450.676 313.968 445.039 317.606 441.725L337.259 423.825L330.754 399.985C306.738 409.295 288.213 411.427 263.455 413.628L268.698 437.875L294.958 449.308C299.47 451.273 301.536 456.524 299.571 461.036C297.606 465.548 292.355 467.614 287.843 465.649L273.337 459.333L276.397 473.487C277.437 478.297 274.381 483.04 269.57 484.08C264.76 485.12 260.017 482.063 258.977 477.253L255.318 460.332L236.876 475.572C233.082 478.707 227.464 478.173 224.33 474.379C221.195 470.585 221.729 464.968 225.523 461.833L251.078 440.717L245.549 415.148C240.114 415.536 235.349 415.735 228.598 415.814C202.44 416.117 187.518 413.81 162.365 409.353C131.708 403.921 114.81 398.202 85.9517 388.333C69.8188 382.815 47.9747 373.811 36.7048 369.074C26.5035 364.786 26.6227 350.527 36.5821 346.196C43.6311 343.131 54.2276 338.526 62.1238 335.101C77.6702 328.356 79.5828 328.361 92.3579 319.384C107.186 308.964 108.03 306.248 131.091 283.26C146.67 267.729 156.31 259.669 173.654 246.435C192.58 231.993 203.999 224.659 224.447 212.772C235.598 206.289 244.784 203.597 251.821 200.873C258.711 198.206 264.967 195.101 272.896 187.35C284.933 175.586 288.031 161.767 287.563 142.546C287.462 138.362 286.76 135.166 285.838 131.321C284.912 127.456 283.72 122.789 283.325 116.755C282.581 105.397 281.528 96.996 284.87 84.0521C288.725 69.1246 294.119 60.9528 303.381 49.8572C310.768 41.0087 316.298 34.5336 328.205 28.638ZM296.285 186.138C293.486 190.989 289.903 195.649 285.354 200.096C275.29 209.932 266.792 214.189 258.254 217.494C249.864 220.742 242.947 222.632 233.404 228.18C213.459 239.775 202.683 246.703 184.465 260.604C167.592 273.479 158.576 281.027 143.674 295.882C121.765 317.723 119.093 322.379 102.605 333.966C88.0494 344.194 84.3148 344.901 69.217 351.451C65.0291 353.268 60.081 355.419 55.3048 357.494C66.5518 362.098 80.6318 367.676 91.7185 371.468C120.415 381.283 136.237 386.624 165.475 391.804C190.221 396.189 203.875 398.277 228.39 397.992C236.422 397.899 241.364 397.638 248.596 397.038C249.221 396.735 249.892 396.499 250.602 396.346C252.091 396.024 253.575 396.095 254.944 396.489C285.175 393.84 303.138 392.324 329.417 381.307C330.557 379.865 332.15 378.762 334.058 378.241C335.072 377.964 336.092 377.876 337.083 377.951C344.17 374.743 348.943 372.227 356.316 367.64C369.617 359.367 376.496 354.26 387.056 343.232C400.998 328.672 407.788 319.608 414.961 301.516C421.293 285.545 422.783 275.825 423.349 258.153C423.974 238.618 419.841 229.023 415.544 207.246C414.882 203.892 414.039 201.092 413.093 198.288C409.418 198.955 404.709 199.757 399.451 200.513C387.294 202.263 371.513 203.901 358.767 202.936C344.423 201.85 327.249 196.962 314.125 192.588C307.462 190.368 301.651 188.214 297.502 186.614C297.079 186.45 296.674 186.289 296.285 186.138ZM322.992 255.839C327.528 253.931 332.753 256.06 334.661 260.596L326.586 263.995C334.459 260.682 334.656 260.6 334.661 260.598L334.663 260.6C334.663 260.602 334.664 260.603 334.665 260.605C334.666 260.608 334.668 260.612 334.669 260.616C334.673 260.625 334.677 260.637 334.683 260.65C334.694 260.676 334.709 260.712 334.727 260.755C334.762 260.842 334.813 260.963 334.874 261.114C334.996 261.416 335.165 261.842 335.368 262.367C335.771 263.414 336.312 264.879 336.87 266.564C337.92 269.728 339.293 274.433 339.588 278.698C340.289 288.815 337.426 296.556 333.152 303.284C331.109 306.5 328.749 309.479 326.469 312.256C324.095 315.149 321.881 317.74 319.582 320.714C304.338 340.434 290.206 347.749 269.536 357.874C250.986 366.961 225.668 370.752 205.848 372.395C195.773 373.229 186.798 373.531 180.338 373.625C177.105 373.672 174.493 373.666 172.677 373.649C171.769 373.641 171.06 373.629 170.571 373.619C170.327 373.614 170.137 373.61 170.005 373.607C169.94 373.605 169.888 373.603 169.851 373.602C169.834 373.602 169.819 373.602 169.808 373.602C169.803 373.602 169.798 373.602 169.795 373.602C169.793 373.602 169.791 373.601 169.79 373.601C169.789 373.587 169.797 373.247 170.046 364.694L169.787 373.601C164.867 373.458 160.995 369.354 161.139 364.434C161.282 359.515 165.386 355.643 170.306 355.786C170.31 355.786 170.319 355.786 170.33 355.786C170.353 355.787 170.391 355.788 170.443 355.789C170.546 355.792 170.707 355.796 170.922 355.8C171.353 355.809 172.002 355.819 172.845 355.827C174.534 355.843 177.003 355.849 180.08 355.804C186.24 355.715 194.798 355.426 204.376 354.632C223.862 353.017 246.328 349.397 261.695 341.869C281.917 331.963 292.876 326.119 305.481 309.813C307.992 306.566 310.59 303.512 312.694 300.949C314.892 298.271 316.675 295.983 318.108 293.728C320.783 289.516 322.194 285.503 321.808 279.929C321.676 278.022 320.924 275.096 319.954 272.173C319.504 270.815 319.063 269.621 318.735 268.771C318.573 268.348 318.44 268.016 318.351 267.797C318.307 267.688 318.274 267.607 318.253 267.558C318.243 267.534 318.237 267.517 318.233 267.509L318.232 267.506L318.231 267.504L318.231 267.502L318.066 267.082C316.46 262.649 318.597 257.688 322.992 255.839ZM305.354 150.638C305.134 157.152 304.408 163.48 302.889 169.584C303.218 169.712 303.559 169.848 303.914 169.985C307.871 171.511 313.417 173.565 319.76 175.679C332.646 179.973 348.078 184.253 360.112 185.164C370.81 185.974 384.98 184.589 396.913 182.872C401.015 182.282 404.771 181.663 407.922 181.11C407.293 177.611 406.967 173.763 407.182 169.385C407.247 168.055 407.293 166.715 407.349 165.364C404.42 165.734 401.095 166.119 397.524 166.47C385.185 167.684 369.163 168.586 356.332 166.848C342.595 164.987 326.394 159.273 314.081 154.299C310.935 153.029 307.994 151.786 305.354 150.638ZM363.53 39.821C351.855 39.2369 345.616 39.9043 336.113 44.6096C327.732 48.7595 324.184 52.7479 317.063 61.2782C308.822 71.1505 305.101 76.9893 302.127 88.5073C299.627 98.19 300.326 103.629 301.109 115.589C301.39 119.882 302.2 123.122 303.17 127.166C303.42 128.21 303.676 129.298 303.924 130.442C304.533 130.727 305.207 131.042 305.941 131.379C309.633 133.076 314.815 135.374 320.755 137.773C332.833 142.651 347.313 147.64 358.724 149.186C369.387 150.631 383.678 149.924 395.779 148.734C401.73 148.148 406.973 147.465 410.724 146.929C410.876 146.907 411.026 146.883 411.173 146.862C411.877 145.378 412.717 143.866 413.721 142.323C418.896 134.37 424.226 130.968 431.153 127.15C437.028 123.913 443.074 122.289 448.411 121.063C450.329 120.623 452.108 120.239 453.8 119.867C451.257 118.655 448.667 117.333 446.114 115.902C439.101 111.973 431.788 106.918 426.515 100.662C419.787 92.6785 417.826 84.3438 416.244 77.9993C414.631 71.5291 413.395 67.0306 409.616 62.6004C402.068 53.753 396.728 49.87 385.979 45.1907C377.481 41.4918 372.629 40.2762 363.53 39.821ZM375.043 77.3642C381.36 77.0291 386.767 82.1353 387.119 88.7686C387.471 95.4018 382.635 101.051 376.318 101.386C370 101.721 364.594 96.6158 364.241 89.9826C363.889 83.3493 368.726 77.6994 375.043 77.3642Z" fill="white"/>
</g>
<defs>
<filter id="filter0_g_10_27" x="24.6275" y="17.3668" width="460.917" height="471.372" filterUnits="userSpaceOnUse" color-interpolation-filters="sRGB">
<feFlood flood-opacity="0" result="BackgroundImageFix"/>
<feBlend mode="normal" in="SourceGraphic" in2="BackgroundImageFix" result="shape"/>
<feTurbulence type="fractalNoise" baseFrequency="0.014498263597488403 0.014498263597488403" numOctaves="3" seed="3502" />
<feDisplacementMap in="shape" scale="8.9113397598266602" xChannelSelector="R" yChannelSelector="G" result="displacedImage" width="100%" height="100%" />
<feMerge result="effect1_texture_10_27">
<feMergeNode in="displacedImage"/>
</feMerge>
</filter>
</defs>
</svg>
