<svg width="512" height="512" viewBox="0 0 512 512" fill="none" xmlns="http://www.w3.org/2000/svg">
<g filter="url(#filter0_g_11_49)">
<path d="M323.802 51.9476C335.964 45.9254 344.808 45.1852 357.389 45.8145C367.969 46.3438 374.41 47.9796 383.993 52.1511C396.198 57.4638 403.213 62.5439 411.907 72.735C418.18 80.0878 420.016 87.7801 421.496 93.7163C423.004 99.7657 424.155 104.044 427.712 108.266C430.722 111.837 435.434 115.321 441.043 118.504C446.566 121.639 452.501 124.228 457.539 126.172C463.09 128.315 465.203 133.602 465.132 137.739C465.061 141.888 462.737 147.175 456.974 149.039C456.158 149.303 455.336 149.574 454.523 149.847C449.236 151.621 443.629 152.667 439.292 153.663C434.665 154.726 430.852 155.839 427.435 157.722C421.899 160.773 419.666 162.36 416.992 166.469C416.358 167.444 415.857 168.35 415.457 169.246C415.45 170.773 415.007 172.227 414.226 173.466C413.812 176.001 413.742 179.055 413.519 183.588C413.295 188.16 413.986 191.763 415.155 195.592C415.733 196.431 416.16 197.395 416.387 198.454C416.483 198.899 416.537 199.344 416.557 199.784C417.994 203.864 419.842 208.935 421.019 214.901C424.563 232.856 429.253 245.328 428.591 265.999C428.02 283.857 426.389 294.853 419.639 311.88C411.963 331.239 404.234 341.417 390.264 356.006C379.25 367.508 371.686 373.088 358.465 381.311C351.767 385.477 347.025 388.041 341.088 390.811L347.944 415.939L377.299 426.851C381.44 428.391 383.55 432.997 382.01 437.138C380.471 441.279 375.866 443.388 371.725 441.849L353.128 434.936L356.269 446.444C357.432 450.706 354.919 455.104 350.657 456.267C346.394 457.43 341.996 454.918 340.833 450.656L337.171 437.238L324.772 448.533C321.505 451.507 316.446 451.271 313.471 448.005C310.496 444.738 310.733 439.679 313.999 436.704L332.441 419.905L326.246 397.198C303.654 406.001 286.319 407.968 262.986 410.039L267.973 433.107L292.578 443.821C296.628 445.584 298.483 450.298 296.719 454.348C294.956 458.399 290.242 460.254 286.191 458.49L272.139 452.372L275.114 466.132C276.047 470.45 273.304 474.708 268.985 475.642C264.667 476.575 260.409 473.831 259.475 469.513L255.962 453.265L238.401 467.778C234.995 470.592 229.952 470.112 227.138 466.706C224.324 463.3 224.804 458.258 228.209 455.444L252.155 435.656L246.912 411.404C241.745 411.777 237.268 411.968 230.877 412.043C206.539 412.325 192.66 410.179 169.237 406.029C140.702 400.973 124.98 395.652 98.0997 386.458C83.3253 381.405 63.4028 373.212 52.7694 368.748C43.2962 364.77 43.4386 351.55 52.6563 347.542L75.9258 337.433C90.4002 331.153 92.2134 331.146 104.144 322.762C117.985 313.037 118.802 310.474 140.264 289.08C154.765 274.624 163.734 267.124 179.882 254.802C197.5 241.358 208.127 234.533 227.166 223.465C237.526 217.442 246.045 214.947 252.623 212.401C259.07 209.905 264.935 206.994 272.358 199.739C283.655 188.696 286.548 175.723 286.112 157.78C286.016 153.849 285.355 150.846 284.495 147.26C283.632 143.657 282.528 139.333 282.161 133.742C281.468 123.151 280.493 115.376 283.592 103.373C287.168 89.5253 292.165 81.9521 300.776 71.6368C307.652 63.3996 312.77 57.41 323.802 51.9476ZM293.801 198.018C291.187 202.596 287.827 206.991 283.541 211.181C274.202 220.309 266.324 224.254 258.399 227.322C250.606 230.338 244.125 232.113 235.208 237.297C216.619 248.103 206.57 254.564 189.588 267.523C173.862 279.522 165.453 286.561 151.56 300.411C131.131 320.775 128.674 325.081 113.343 335.854C99.8141 345.361 96.3652 346.006 82.2936 352.111C78.2006 353.887 73.3278 356.005 68.6787 358.025C79.2657 362.366 92.7253 367.711 103.277 371.32C130.012 380.463 144.769 385.445 172.029 390.275C195.087 394.361 207.827 396.309 230.691 396.044C238.203 395.956 242.819 395.711 249.592 395.148C250.168 394.865 250.788 394.646 251.444 394.504C252.798 394.212 254.147 394.28 255.388 394.646C283.616 392.172 300.402 390.765 324.986 380.447C326.011 379.123 327.46 378.109 329.2 377.634C330.137 377.378 331.08 377.301 331.994 377.38C338.644 374.372 343.108 372.02 350.014 367.725C362.419 360.009 368.849 355.236 378.708 344.94C391.714 331.358 398.064 322.882 404.764 305.983C410.678 291.066 412.072 281.975 412.599 265.488C413.183 247.244 409.317 238.241 405.323 217.998C404.684 214.762 403.863 212.072 402.945 209.371C399.489 210 395.01 210.765 389.995 211.487C378.674 213.116 364 214.638 352.161 213.742C338.838 212.733 322.87 208.189 310.648 204.116C304.448 202.05 299.038 200.045 295.177 198.556C294.693 198.37 294.235 198.188 293.801 198.018ZM318.929 263.6C323.001 261.887 327.691 263.799 329.405 267.871L322.157 270.922C329.208 267.955 329.4 267.874 329.406 267.873L329.407 267.875C329.407 267.876 329.407 267.877 329.408 267.879C329.409 267.882 329.411 267.885 329.412 267.889C329.416 267.897 329.421 267.908 329.426 267.92C329.436 267.944 329.449 267.977 329.465 268.017C329.498 268.097 329.544 268.209 329.601 268.349C329.714 268.629 329.872 269.025 330.06 269.513C330.434 270.484 330.937 271.843 331.456 273.407C332.432 276.351 333.7 280.704 333.972 284.637C334.619 293.985 331.976 301.132 328.022 307.357C326.13 310.336 323.941 313.1 321.819 315.686C319.612 318.375 317.544 320.796 315.398 323.571C301.242 341.883 288.132 348.673 268.885 358.101C251.659 366.54 228.121 370.068 209.664 371.597C200.288 372.374 191.934 372.655 185.922 372.743C182.913 372.786 180.482 372.781 178.793 372.765C177.949 372.757 177.288 372.746 176.834 372.737C176.607 372.732 176.43 372.729 176.308 372.726C176.247 372.724 176.2 372.723 176.166 372.722C176.149 372.722 176.136 372.721 176.126 372.721C176.121 372.72 176.116 372.72 176.113 372.72C176.112 372.72 176.11 372.72 176.109 372.72C176.108 372.713 176.114 372.479 176.339 364.723L176.106 372.721C171.69 372.592 168.214 368.908 168.342 364.492C168.471 360.075 172.156 356.599 176.572 356.727L176.573 356.727C176.577 356.727 176.585 356.728 176.596 356.728C176.617 356.728 176.652 356.729 176.7 356.73C176.797 356.733 176.949 356.737 177.15 356.741C177.552 356.748 178.157 356.758 178.945 356.766C180.52 356.78 182.822 356.786 185.69 356.744C191.434 356.661 199.412 356.392 208.343 355.652C226.5 354.147 247.477 350.771 261.846 343.732C280.691 334.501 290.953 329.032 302.739 313.785C305.075 310.764 307.488 307.928 309.452 305.535C311.501 303.039 313.173 300.895 314.517 298.779C317.037 294.812 318.375 291.011 318.01 285.741C317.884 283.925 317.173 281.17 316.269 278.443C315.847 277.172 315.434 276.056 315.128 275.261C314.975 274.865 314.851 274.553 314.768 274.348C314.727 274.246 314.696 274.17 314.677 274.124C314.668 274.101 314.66 274.084 314.657 274.076C314.655 274.073 314.655 274.071 314.655 274.071C312.946 269.999 314.859 265.313 318.929 263.6ZM302.096 164.87C301.907 171.17 301.218 177.278 299.729 183.158C300.111 183.306 300.512 183.465 300.934 183.628C304.622 185.05 309.793 186.966 315.707 188.937C327.715 192.939 342.12 196.935 353.369 197.787C363.369 198.544 376.596 197.251 387.715 195.651C391.672 195.081 395.283 194.483 398.282 193.953C397.664 190.634 397.335 186.979 397.539 182.803C397.606 181.443 397.651 180.077 397.711 178.699C394.899 179.057 391.68 179.433 388.212 179.774C376.722 180.904 361.826 181.741 349.91 180.127C337.153 178.399 322.09 173.087 310.624 168.456C307.533 167.208 304.656 165.987 302.096 164.87ZM356.59 61.7944C345.683 61.2487 339.815 61.8725 330.902 66.2859C323.035 70.1811 319.696 73.9386 313.059 81.89C305.365 91.1072 301.869 96.5861 299.084 107.373C296.741 116.448 297.398 121.565 298.127 132.696C298.391 136.724 299.153 139.766 300.055 143.531C300.298 144.547 300.548 145.606 300.787 146.721C301.39 147.004 302.064 147.319 302.803 147.659C306.246 149.241 311.077 151.384 316.616 153.621C327.871 158.167 341.387 162.826 352.057 164.271C362.026 165.622 375.369 164.96 386.645 163.851C392.194 163.305 397.082 162.668 400.579 162.168C400.778 162.14 400.971 162.109 401.16 162.081C401.825 160.664 402.622 159.219 403.582 157.743C408.363 150.396 413.277 147.256 419.713 143.709C425.148 140.714 430.746 139.209 435.711 138.068C437.818 137.584 439.751 137.173 441.588 136.764C438.804 135.459 435.948 134.011 433.145 132.42C426.795 128.816 420.236 124.222 415.478 118.576C409.261 111.199 407.445 103.5 405.971 97.5874C404.469 91.5616 403.306 87.3059 399.734 83.1192C392.672 74.8419 387.661 71.1979 377.607 66.8216C369.661 63.3626 365.105 62.2204 356.59 61.7944ZM367.3 97.0684C373.185 96.7562 378.221 101.512 378.549 107.691C378.877 113.87 374.372 119.133 368.487 119.445C362.602 119.757 357.565 115.001 357.237 108.822C356.91 102.643 361.415 97.3808 367.3 97.0684Z" fill="white"/>
</g>
<path d="M327.687 95.0199C319.534 92.9996 311.611 107.042 309.764 117.243C307.609 129.142 315.493 139.264 327.687 138.995C338.046 138.766 344.667 131.495 345.774 121.284C346.997 110.003 339.102 94.1781 327.687 95.0199ZM327.687 95.0199C327.687 65.389 317.236 21.8046 348.07 25.1855C378.206 28.4899 371.85 54.1429 371.85 54.1429" stroke="black" stroke-width="16"/>
<path d="M327.687 95.0199C319.534 92.9996 311.611 107.042 309.764 117.243C307.609 129.142 315.493 139.264 327.687 138.995C338.046 138.766 344.667 131.495 345.774 121.284C346.997 110.003 339.102 94.1781 327.687 95.0199ZM327.687 95.0199C327.687 65.389 317.236 21.8046 348.07 25.1855C378.206 28.4899 371.85 54.1429 371.85 54.1429" stroke="white" stroke-width="16"/>
<defs>
<filter id="filter0_g_11_49" x="41.2481" y="41.1749" width="428.342" height="439.105" filterUnits="userSpaceOnUse" color-interpolation-filters="sRGB">
<feFlood flood-opacity="0" result="BackgroundImageFix"/>
<feBlend mode="normal" in="SourceGraphic" in2="BackgroundImageFix" result="shape"/>
<feTurbulence type="fractalNoise" baseFrequency="0.014498263597488403 0.014498263597488403" numOctaves="3" seed="3502" />
<feDisplacementMap in="shape" scale="8.9113397598266602" xChannelSelector="R" yChannelSelector="G" result="displacedImage" width="100%" height="100%" />
<feMerge result="effect1_texture_11_49">
<feMergeNode in="displacedImage"/>
</feMerge>
</filter>
</defs>
</svg>
